# xmcd CD database file
#
# Track frame offsets:
#	187
#	57027
#	81680
#	116852
#	150302
#
# Disc length: 2285 seconds
#
# Revision: 2
# Processed by: cddbd v1.5.1PL0 Copyright (c) Steve Scherf et al.
# Submitted via: CDex 1.51
#
DISCID=3a08eb05
DTITLE=John Coltrane With The Red Garland Trio - Traneing In
DYEAR=1957
DGENRE=Jazz
TTITLE0=Traneing In
TTITLE1=Slow Dance
TTITLE2=Bass Blues
TTITLE3=You Leave Me Breathless
TTITLE4=Soft Lights And Sweet Music
EXTD=YEAR: 1957
EXTT0=
EXTT1=
EXTT2=
EXTT3=
EXTT4=
PLAYORDER=
